<mxfile host="app.diagrams.net" modified="2024-02-24T02:43:43.079Z" agent="Mozilla/5.0 (Macintosh; Intel Mac OS X 10_15_7) AppleWebKit/537.36 (KHTML, like Gecko) Chrome/121.0.0.0 Safari/537.36" etag="yrgrvEEaty4JE3SvlnO4" version="23.1.6" type="device">
  <diagram name="Page-1" id="2fm8lVqz_8kDZXKd_Iky">
    <mxGraphModel dx="634" dy="835" grid="1" gridSize="10" guides="1" tooltips="1" connect="1" arrows="1" fold="1" page="1" pageScale="1" pageWidth="850" pageHeight="1100" math="0" shadow="0">
      <root>
        <mxCell id="0" />
        <mxCell id="1" parent="0" />
        <mxCell id="MiTzMC0g-7XMPi0sX4Yg-1" value="question" style="text;html=1;align=center;verticalAlign=middle;whiteSpace=wrap;rounded=0;sketch=1;curveFitting=1;jiggle=2;" parent="1" vertex="1">
          <mxGeometry x="90" y="172" width="60" height="30" as="geometry" />
        </mxCell>
        <mxCell id="MiTzMC0g-7XMPi0sX4Yg-2" value="Conversation&lt;br&gt;Memory" style="shape=cylinder3;whiteSpace=wrap;html=1;boundedLbl=1;backgroundOutline=1;size=15;sketch=1;curveFitting=1;jiggle=2;" parent="1" vertex="1">
          <mxGeometry x="260" y="30" width="110" height="80" as="geometry" />
        </mxCell>
        <mxCell id="MiTzMC0g-7XMPi0sX4Yg-3" value="Question&lt;br&gt;Rewriting&lt;br&gt;(LLM)" style="shape=process;whiteSpace=wrap;html=1;backgroundOutline=1;sketch=1;curveFitting=1;jiggle=2;" parent="1" vertex="1">
          <mxGeometry x="255" y="157" width="120" height="60" as="geometry" />
        </mxCell>
        <mxCell id="MiTzMC0g-7XMPi0sX4Yg-4" value="rewritten query" style="text;html=1;align=center;verticalAlign=middle;whiteSpace=wrap;rounded=0;sketch=1;curveFitting=1;jiggle=2;" parent="1" vertex="1">
          <mxGeometry x="480" y="172" width="60" height="30" as="geometry" />
        </mxCell>
        <mxCell id="MiTzMC0g-7XMPi0sX4Yg-5" value="Vector&lt;br&gt;Store" style="shape=cylinder3;whiteSpace=wrap;html=1;boundedLbl=1;backgroundOutline=1;size=15;sketch=1;curveFitting=1;jiggle=2;" parent="1" vertex="1">
          <mxGeometry x="120" y="263" width="60" height="80" as="geometry" />
        </mxCell>
        <mxCell id="MiTzMC0g-7XMPi0sX4Yg-6" value="Retriever" style="shape=process;whiteSpace=wrap;html=1;backgroundOutline=1;sketch=1;curveFitting=1;jiggle=2;" parent="1" vertex="1">
          <mxGeometry x="255" y="273" width="120" height="60" as="geometry" />
        </mxCell>
        <mxCell id="MiTzMC0g-7XMPi0sX4Yg-7" value="Question&lt;br&gt;Answering&lt;br&gt;(LLM)" style="shape=process;whiteSpace=wrap;html=1;backgroundOutline=1;sketch=1;curveFitting=1;jiggle=2;" parent="1" vertex="1">
          <mxGeometry x="255" y="390" width="120" height="60" as="geometry" />
        </mxCell>
        <mxCell id="MiTzMC0g-7XMPi0sX4Yg-8" value="" style="endArrow=classic;html=1;rounded=0;exitX=1;exitY=0.5;exitDx=0;exitDy=0;entryX=0;entryY=0.5;entryDx=0;entryDy=0;sketch=1;curveFitting=1;jiggle=2;" parent="1" source="MiTzMC0g-7XMPi0sX4Yg-1" target="MiTzMC0g-7XMPi0sX4Yg-3" edge="1">
          <mxGeometry width="50" height="50" relative="1" as="geometry">
            <mxPoint x="300" y="450" as="sourcePoint" />
            <mxPoint x="350" y="400" as="targetPoint" />
          </mxGeometry>
        </mxCell>
        <mxCell id="MiTzMC0g-7XMPi0sX4Yg-9" value="" style="endArrow=classic;html=1;rounded=0;exitX=0.5;exitY=1;exitDx=0;exitDy=0;exitPerimeter=0;entryX=0.5;entryY=0;entryDx=0;entryDy=0;sketch=1;curveFitting=1;jiggle=2;" parent="1" source="MiTzMC0g-7XMPi0sX4Yg-2" target="MiTzMC0g-7XMPi0sX4Yg-3" edge="1">
          <mxGeometry width="50" height="50" relative="1" as="geometry">
            <mxPoint x="300" y="450" as="sourcePoint" />
            <mxPoint x="350" y="400" as="targetPoint" />
          </mxGeometry>
        </mxCell>
        <mxCell id="MiTzMC0g-7XMPi0sX4Yg-10" value="" style="endArrow=classic;html=1;rounded=0;exitX=1;exitY=0.5;exitDx=0;exitDy=0;entryX=0;entryY=0.5;entryDx=0;entryDy=0;sketch=1;curveFitting=1;jiggle=2;" parent="1" source="MiTzMC0g-7XMPi0sX4Yg-3" target="MiTzMC0g-7XMPi0sX4Yg-4" edge="1">
          <mxGeometry width="50" height="50" relative="1" as="geometry">
            <mxPoint x="300" y="450" as="sourcePoint" />
            <mxPoint x="350" y="400" as="targetPoint" />
          </mxGeometry>
        </mxCell>
        <mxCell id="MiTzMC0g-7XMPi0sX4Yg-12" value="context" style="text;html=1;align=center;verticalAlign=middle;whiteSpace=wrap;rounded=0;sketch=1;curveFitting=1;jiggle=2;" parent="1" vertex="1">
          <mxGeometry x="310" y="343" width="60" height="30" as="geometry" />
        </mxCell>
        <mxCell id="MiTzMC0g-7XMPi0sX4Yg-13" value="" style="endArrow=classic;html=1;rounded=0;exitX=0.5;exitY=1;exitDx=0;exitDy=0;entryX=0.5;entryY=0;entryDx=0;entryDy=0;sketch=1;curveFitting=1;jiggle=2;" parent="1" source="MiTzMC0g-7XMPi0sX4Yg-6" target="MiTzMC0g-7XMPi0sX4Yg-7" edge="1">
          <mxGeometry width="50" height="50" relative="1" as="geometry">
            <mxPoint x="300" y="450" as="sourcePoint" />
            <mxPoint x="350" y="400" as="targetPoint" />
          </mxGeometry>
        </mxCell>
        <mxCell id="MiTzMC0g-7XMPi0sX4Yg-14" value="" style="curved=1;endArrow=classic;html=1;rounded=0;entryX=0.75;entryY=0;entryDx=0;entryDy=0;sketch=1;curveFitting=1;jiggle=2;" parent="1" target="MiTzMC0g-7XMPi0sX4Yg-7" edge="1">
          <mxGeometry width="50" height="50" relative="1" as="geometry">
            <mxPoint x="500" y="210" as="sourcePoint" />
            <mxPoint x="350" y="400" as="targetPoint" />
            <Array as="points">
              <mxPoint x="490" y="280" />
              <mxPoint x="370" y="350" />
            </Array>
          </mxGeometry>
        </mxCell>
        <mxCell id="MiTzMC0g-7XMPi0sX4Yg-15" value="question" style="text;html=1;align=center;verticalAlign=middle;whiteSpace=wrap;rounded=0;sketch=1;curveFitting=1;jiggle=2;" parent="1" vertex="1">
          <mxGeometry x="365" y="360" width="60" height="30" as="geometry" />
        </mxCell>
        <mxCell id="MiTzMC0g-7XMPi0sX4Yg-16" value="answer" style="text;html=1;align=center;verticalAlign=middle;whiteSpace=wrap;rounded=0;sketch=1;curveFitting=1;jiggle=2;" parent="1" vertex="1">
          <mxGeometry x="285" y="488" width="60" height="30" as="geometry" />
        </mxCell>
        <mxCell id="MiTzMC0g-7XMPi0sX4Yg-17" value="" style="endArrow=classic;html=1;rounded=0;exitX=0.5;exitY=1;exitDx=0;exitDy=0;sketch=1;curveFitting=1;jiggle=2;" parent="1" source="MiTzMC0g-7XMPi0sX4Yg-7" edge="1">
          <mxGeometry width="50" height="50" relative="1" as="geometry">
            <mxPoint x="300" y="450" as="sourcePoint" />
            <mxPoint x="315" y="490" as="targetPoint" />
          </mxGeometry>
        </mxCell>
        <mxCell id="MiTzMC0g-7XMPi0sX4Yg-18" value="" style="curved=1;endArrow=classic;html=1;rounded=0;exitX=1;exitY=0.5;exitDx=0;exitDy=0;entryX=1;entryY=0.5;entryDx=0;entryDy=0;entryPerimeter=0;sketch=1;curveFitting=1;jiggle=2;" parent="1" source="MiTzMC0g-7XMPi0sX4Yg-16" target="MiTzMC0g-7XMPi0sX4Yg-2" edge="1">
          <mxGeometry width="50" height="50" relative="1" as="geometry">
            <mxPoint x="300" y="450" as="sourcePoint" />
            <mxPoint x="350" y="400" as="targetPoint" />
            <Array as="points">
              <mxPoint x="390" y="490" />
              <mxPoint x="510" y="460" />
              <mxPoint x="640" y="200" />
              <mxPoint x="500" y="60" />
            </Array>
          </mxGeometry>
        </mxCell>
        <mxCell id="MiTzMC0g-7XMPi0sX4Yg-19" value="" style="curved=1;endArrow=classic;html=1;rounded=0;exitX=0.5;exitY=0;exitDx=0;exitDy=0;entryX=1;entryY=0;entryDx=0;entryDy=52.5;entryPerimeter=0;sketch=1;curveFitting=1;jiggle=2;" parent="1" source="MiTzMC0g-7XMPi0sX4Yg-4" target="MiTzMC0g-7XMPi0sX4Yg-2" edge="1">
          <mxGeometry width="50" height="50" relative="1" as="geometry">
            <mxPoint x="300" y="450" as="sourcePoint" />
            <mxPoint x="350" y="400" as="targetPoint" />
            <Array as="points">
              <mxPoint x="520" y="140" />
              <mxPoint x="490" y="110" />
              <mxPoint x="470" y="100" />
              <mxPoint x="440" y="90" />
            </Array>
          </mxGeometry>
        </mxCell>
        <mxCell id="MiTzMC0g-7XMPi0sX4Yg-20" value="" style="endArrow=classic;html=1;rounded=0;exitX=1;exitY=0.5;exitDx=0;exitDy=0;exitPerimeter=0;entryX=0;entryY=0.5;entryDx=0;entryDy=0;sketch=1;curveFitting=1;jiggle=2;" parent="1" source="MiTzMC0g-7XMPi0sX4Yg-5" target="MiTzMC0g-7XMPi0sX4Yg-6" edge="1">
          <mxGeometry width="50" height="50" relative="1" as="geometry">
            <mxPoint x="300" y="450" as="sourcePoint" />
            <mxPoint x="350" y="400" as="targetPoint" />
          </mxGeometry>
        </mxCell>
        <mxCell id="MiTzMC0g-7XMPi0sX4Yg-21" value="" style="curved=1;endArrow=classic;html=1;rounded=0;exitX=0;exitY=0.5;exitDx=0;exitDy=0;entryX=0.5;entryY=1;entryDx=0;entryDy=0;dashed=1;sketch=1;curveFitting=1;jiggle=2;" parent="1" source="MiTzMC0g-7XMPi0sX4Yg-16" target="MiTzMC0g-7XMPi0sX4Yg-1" edge="1">
          <mxGeometry width="50" height="50" relative="1" as="geometry">
            <mxPoint x="300" y="450" as="sourcePoint" />
            <mxPoint x="350" y="400" as="targetPoint" />
            <Array as="points">
              <mxPoint x="80" y="440" />
              <mxPoint x="70" y="310" />
            </Array>
          </mxGeometry>
        </mxCell>
        <mxCell id="MiTzMC0g-7XMPi0sX4Yg-24" value="next question" style="text;html=1;align=center;verticalAlign=middle;whiteSpace=wrap;rounded=0;sketch=1;curveFitting=1;jiggle=2;" parent="1" vertex="1">
          <mxGeometry x="75" y="458" width="90" height="30" as="geometry" />
        </mxCell>
        <mxCell id="tWIOa_aF2jiu3pJfwZWh-1" value="" style="curved=1;endArrow=classic;html=1;rounded=0;exitX=0.133;exitY=1.067;exitDx=0;exitDy=0;exitPerimeter=0;entryX=0.5;entryY=0;entryDx=0;entryDy=0;sketch=1;curveFitting=1;jiggle=2;" edge="1" parent="1" source="MiTzMC0g-7XMPi0sX4Yg-4" target="MiTzMC0g-7XMPi0sX4Yg-6">
          <mxGeometry width="50" height="50" relative="1" as="geometry">
            <mxPoint x="300" y="450" as="sourcePoint" />
            <mxPoint x="350" y="400" as="targetPoint" />
            <Array as="points">
              <mxPoint x="430" y="220" />
              <mxPoint x="370" y="240" />
            </Array>
          </mxGeometry>
        </mxCell>
        <mxCell id="tWIOa_aF2jiu3pJfwZWh-2" value="question" style="text;html=1;align=center;verticalAlign=middle;whiteSpace=wrap;rounded=0;sketch=1;curveFitting=1;jiggle=2;" vertex="1" parent="1">
          <mxGeometry x="360" y="233" width="60" height="30" as="geometry" />
        </mxCell>
      </root>
    </mxGraphModel>
  </diagram>
</mxfile>
